<svg width="14" height="14" viewBox="0 0 14 14" fill="none" xmlns="http://www.w3.org/2000/svg">
<path fill-rule="evenodd" clip-rule="evenodd" d="M1.85137 1.84356C2.28926 1.40567 2.88317 1.15967 3.50244 1.15967C4.12171 1.15967 4.71562 1.40567 5.15351 1.84356C5.5914 2.28145 5.8374 2.87536 5.8374 3.49463V4.66211H8.17236V3.49463C8.17236 2.87536 8.41837 2.28145 8.85626 1.84356C9.29415 1.40567 9.88805 1.15967 10.5073 1.15967C11.1266 1.15967 11.7205 1.40567 12.1584 1.84356C12.5963 2.28145 12.8423 2.87536 12.8423 3.49463C12.8423 4.1139 12.5963 4.70781 12.1584 5.1457C11.7205 5.58359 11.1266 5.82959 10.5073 5.82959H9.33984V8.16455H10.5073C11.1266 8.16455 11.7205 8.41055 12.1584 8.84844C12.5963 9.28633 12.8423 9.88024 12.8423 10.4995C12.8423 11.1188 12.5963 11.7127 12.1584 12.1506C11.7205 12.5885 11.1266 12.8345 10.5073 12.8345C9.88805 12.8345 9.29415 12.5885 8.85626 12.1506C8.41837 11.7127 8.17236 11.1188 8.17236 10.4995V9.33203H5.8374V10.4995C5.8374 11.1188 5.5914 11.7127 5.15351 12.1506C4.71562 12.5885 4.12171 12.8345 3.50244 12.8345C2.88317 12.8345 2.28926 12.5885 1.85137 12.1506C1.41348 11.7127 1.16748 11.1188 1.16748 10.4995C1.16748 9.88024 1.41348 9.28633 1.85137 8.84844C2.28926 8.41055 2.88317 8.16455 3.50244 8.16455H4.66992V5.82959H3.50244C2.88317 5.82959 2.28926 5.58359 1.85137 5.1457C1.41348 4.70781 1.16748 4.1139 1.16748 3.49463C1.16748 2.87536 1.41348 2.28145 1.85137 1.84356ZM4.66992 4.66211V3.49463C4.66992 3.18499 4.54692 2.88804 4.32798 2.6691C4.10903 2.45015 3.81208 2.32715 3.50244 2.32715C3.19281 2.32715 2.89585 2.45015 2.67691 2.6691C2.45796 2.88804 2.33496 3.18499 2.33496 3.49463C2.33496 3.80426 2.45796 4.10122 2.67691 4.32016C2.89585 4.53911 3.19281 4.66211 3.50244 4.66211H4.66992ZM5.8374 5.82959V8.16455H8.17236V5.82959H5.8374ZM4.66992 9.33203H3.50244C3.19281 9.33203 2.89585 9.45503 2.67691 9.67398C2.45796 9.89292 2.33496 10.1899 2.33496 10.4995C2.33496 10.8091 2.45796 11.1061 2.67691 11.325C2.89585 11.544 3.19281 11.667 3.50244 11.667C3.81208 11.667 4.10903 11.544 4.32798 11.325C4.54692 11.1061 4.66992 10.8091 4.66992 10.4995V9.33203ZM9.33984 9.33203V10.4995C9.33984 10.8091 9.46285 11.1061 9.68179 11.325C9.90074 11.544 10.1977 11.667 10.5073 11.667C10.817 11.667 11.1139 11.544 11.3329 11.325C11.5518 11.1061 11.6748 10.8091 11.6748 10.4995C11.6748 10.1899 11.5518 9.89292 11.3329 9.67398C11.1139 9.45503 10.817 9.33203 10.5073 9.33203H9.33984ZM9.33984 4.66211H10.5073C10.817 4.66211 11.1139 4.53911 11.3329 4.32016C11.5518 4.10122 11.6748 3.80426 11.6748 3.49463C11.6748 3.18499 11.5518 2.88804 11.3329 2.6691C11.1139 2.45015 10.817 2.32715 10.5073 2.32715C10.1977 2.32715 9.90074 2.45015 9.68179 2.6691C9.46285 2.88804 9.33984 3.18499 9.33984 3.49463V4.66211Z" fill="#67768E"/>
</svg>
