<svg width="24" height="24" viewBox="0 0 24 24" fill="none" xmlns="http://www.w3.org/2000/svg">
<g clip-path="url(#clip0_1_91)">
<path d="M20.9995 8V20.993C21.0004 21.1243 20.9755 21.2545 20.9261 21.3762C20.8767 21.4979 20.8038 21.6087 20.7116 21.7022C20.6194 21.7957 20.5096 21.8701 20.3887 21.9212C20.2677 21.9723 20.1378 21.9991 20.0065 22H3.99251C3.72932 22 3.4769 21.8955 3.29071 21.7095C3.10451 21.5235 2.99978 21.2712 2.99951 21.008V2.992C2.99951 2.455 3.44851 2 4.00151 2H14.9965L20.9995 8ZM18.9995 9H13.9995V4H4.99951V20H18.9995V9ZM7.99951 7H10.9995V9H7.99951V7ZM7.99951 11H15.9995V13H7.99951V11ZM7.99951 15H15.9995V17H7.99951V15Z" fill="#67768E"/>
</g>
<defs>
<clipPath id="clip0_1_91">
<rect width="24" height="24" fill="white" transform="translate(-0.000488281)"/>
</clipPath>
</defs>
</svg>
