<svg width="17" height="18" viewBox="0 0 17 18" fill="none" xmlns="http://www.w3.org/2000/svg">
<path d="M2.66896 6.61146C2.56778 6.1557 2.58332 5.68178 2.71413 5.23362C2.84494 4.78547 3.08678 4.3776 3.41724 4.04783C3.74771 3.71806 4.15608 3.47707 4.60451 3.3472C5.05294 3.21733 5.5269 3.20278 5.98244 3.30491C6.23318 2.91277 6.57859 2.59006 6.98685 2.36652C7.39511 2.14299 7.85306 2.02582 8.31851 2.02582C8.78396 2.02582 9.24192 2.14299 9.65018 2.36652C10.0584 2.59006 10.4039 2.91277 10.6546 3.30491C11.1108 3.20234 11.5856 3.21682 12.0347 3.347C12.4839 3.47719 12.8928 3.71885 13.2235 4.04951C13.5541 4.38018 13.7958 4.7891 13.926 5.23824C14.0562 5.68738 14.0706 6.16215 13.9681 6.61839C14.3602 6.86913 14.6829 7.21455 14.9065 7.6228C15.13 8.03106 15.2472 8.48902 15.2472 8.95447C15.2472 9.41992 15.13 9.87787 14.9065 10.2861C14.6829 10.6944 14.3602 11.0398 13.9681 11.2905C14.0702 11.7461 14.0557 12.22 13.9258 12.6685C13.7959 13.1169 13.5549 13.5253 13.2252 13.8557C12.8954 14.1862 12.4875 14.428 12.0394 14.5589C11.5912 14.6897 11.1173 14.7052 10.6615 14.604C10.4111 14.9977 10.0654 15.3218 9.65647 15.5463C9.24752 15.7708 8.78852 15.8885 8.32198 15.8885C7.85544 15.8885 7.39644 15.7708 6.98749 15.5463C6.57854 15.3218 6.23285 14.9977 5.98244 14.604C5.5269 14.7062 5.05294 14.6916 4.60451 14.5617C4.15608 14.4319 3.74771 14.1909 3.41724 13.8611C3.08678 13.5313 2.84494 13.1235 2.71413 12.6753C2.58332 12.2272 2.56778 11.7532 2.66896 11.2975C2.27381 11.0474 1.94832 10.7014 1.72278 10.2918C1.49724 9.88214 1.37897 9.4221 1.37897 8.95447C1.37897 8.48683 1.49724 8.02679 1.72278 7.61714C1.94832 7.20749 2.27381 6.86154 2.66896 6.61146Z" stroke="#52924C" stroke-width="1.21309" stroke-linecap="round" stroke-linejoin="round"/>
<path d="M10.3979 6.87549L6.23877 11.0347" stroke="#52924C" stroke-width="1.21309" stroke-linecap="round" stroke-linejoin="round"/>
<path d="M6.23877 6.87549H6.24612" stroke="#52924C" stroke-width="1.21309" stroke-linecap="round" stroke-linejoin="round"/>
<path d="M10.3979 11.0347H10.4053" stroke="#52924C" stroke-width="1.21309" stroke-linecap="round" stroke-linejoin="round"/>
</svg>
