<svg width="16" height="17" viewBox="0 0 16 17" fill="none" xmlns="http://www.w3.org/2000/svg">
<path d="M12 14.5C12 13.0855 11.4381 11.729 10.4379 10.7288C9.43769 9.72857 8.08113 9.16667 6.66665 9.16667C5.25216 9.16667 3.8956 9.72857 2.89541 10.7288C1.89522 11.729 1.33331 13.0855 1.33331 14.5" stroke="#0F172A" stroke-width="1.16667" stroke-linecap="round" stroke-linejoin="round"/>
<path d="M6.66665 9.16667C8.5076 9.16667 9.99998 7.67428 9.99998 5.83333C9.99998 3.99238 8.5076 2.5 6.66665 2.5C4.8257 2.5 3.33331 3.99238 3.33331 5.83333C3.33331 7.67428 4.8257 9.16667 6.66665 9.16667Z" stroke="#0F172A" stroke-width="1.16667" stroke-linecap="round" stroke-linejoin="round"/>
<path d="M14.6667 13.8328C14.6667 11.5861 13.3333 9.49948 12 8.49948C12.4383 8.17066 12.7888 7.73887 13.0204 7.24232C13.252 6.74578 13.3577 6.19979 13.328 5.65268C13.2984 5.10557 13.1343 4.5742 12.8503 4.10561C12.5664 3.63702 12.1713 3.24565 11.7 2.96614" stroke="#0F172A" stroke-width="1.16667" stroke-linecap="round" stroke-linejoin="round"/>
</svg>
