<svg width="22" height="22" viewBox="0 0 22 22" fill="none" xmlns="http://www.w3.org/2000/svg">
<path d="M10.6152 18C12.4718 18 14.2522 17.2625 15.565 15.9497C16.8777 14.637 17.6152 12.8565 17.6152 11C17.6152 9.14348 16.8777 7.36301 15.565 6.05025C14.2522 4.7375 12.4718 4 10.6152 4C8.75872 4 6.97824 4.7375 5.66549 6.05025C4.35273 7.36301 3.61523 9.14348 3.61523 11C3.61523 12.8565 4.35273 14.637 5.66549 15.9497C6.97824 17.2625 8.75872 18 10.6152 18Z" stroke="#5F677A" stroke-width="1.42188" stroke-linecap="round" stroke-linejoin="round"/>
<path d="M10.6152 12.75C11.0794 12.75 11.5245 12.5656 11.8527 12.2374C12.1809 11.9092 12.3652 11.4641 12.3652 11C12.3652 10.5359 12.1809 10.0908 11.8527 9.76256C11.5245 9.43437 11.0794 9.25 10.6152 9.25C10.1511 9.25 9.70599 9.43437 9.3778 9.76256C9.04961 10.0908 8.86523 10.5359 8.86523 11C8.86523 11.4641 9.04961 11.9092 9.3778 12.2374C9.70599 12.5656 10.1511 12.75 10.6152 12.75Z" stroke="#5F677A" stroke-width="1.42188" stroke-linecap="round" stroke-linejoin="round"/>
<path d="M10.6152 2.25V4" stroke="#5F677A" stroke-width="1.42188" stroke-linecap="round" stroke-linejoin="round"/>
<path d="M10.6152 19.75V18" stroke="#5F677A" stroke-width="1.42188" stroke-linecap="round" stroke-linejoin="round"/>
<path d="M14.9902 18.5772L14.1152 17.0635" stroke="#5F677A" stroke-width="1.42188" stroke-linecap="round" stroke-linejoin="round"/>
<path d="M9.74023 9.48611L6.24023 3.42236" stroke="#5F677A" stroke-width="1.42188" stroke-linecap="round" stroke-linejoin="round"/>
<path d="M18.1927 15.375L16.679 14.5" stroke="#5F677A" stroke-width="1.42188" stroke-linecap="round" stroke-linejoin="round"/>
<path d="M3.03784 6.625L4.55159 7.5" stroke="#5F677A" stroke-width="1.42188" stroke-linecap="round" stroke-linejoin="round"/>
<path d="M12.3652 11H19.3652" stroke="#5F677A" stroke-width="1.42188" stroke-linecap="round" stroke-linejoin="round"/>
<path d="M1.86523 11H3.61523" stroke="#5F677A" stroke-width="1.42188" stroke-linecap="round" stroke-linejoin="round"/>
<path d="M18.1927 6.625L16.679 7.5" stroke="#5F677A" stroke-width="1.42188" stroke-linecap="round" stroke-linejoin="round"/>
<path d="M3.03784 15.375L4.55159 14.5" stroke="#5F677A" stroke-width="1.42188" stroke-linecap="round" stroke-linejoin="round"/>
<path d="M14.9902 3.42236L14.1152 4.93611" stroke="#5F677A" stroke-width="1.42188" stroke-linecap="round" stroke-linejoin="round"/>
<path d="M9.74023 12.5142L6.24023 18.5779" stroke="#5F677A" stroke-width="1.42188" stroke-linecap="round" stroke-linejoin="round"/>
</svg>
