<svg width="21" height="22" viewBox="0 0 21 22" fill="none" xmlns="http://www.w3.org/2000/svg">
<path d="M2.52844 6.78642V5.10079C2.52844 4.65373 2.70603 4.22499 3.02215 3.90887C3.33827 3.59275 3.76701 3.41516 4.21407 3.41516H5.8997" stroke="#888A8E" stroke-width="1.68563" stroke-linecap="round" stroke-linejoin="round"/>
<path d="M14.3278 3.41516H16.0134C16.4605 3.41516 16.8893 3.59275 17.2054 3.90887C17.5215 4.22499 17.6991 4.65373 17.6991 5.10079V6.78642" stroke="#888A8E" stroke-width="1.68563" stroke-linecap="round" stroke-linejoin="round"/>
<path d="M17.6991 15.2146V16.9002C17.6991 17.3472 17.5215 17.776 17.2054 18.0921C16.8893 18.4082 16.4605 18.5858 16.0134 18.5858H14.3278" stroke="#888A8E" stroke-width="1.68563" stroke-linecap="round" stroke-linejoin="round"/>
<path d="M5.8997 18.5858H4.21407C3.76701 18.5858 3.33827 18.4082 3.02215 18.0921C2.70603 17.776 2.52844 17.3472 2.52844 16.9002V15.2146" stroke="#888A8E" stroke-width="1.68563" stroke-linecap="round" stroke-linejoin="round"/>
<path d="M10.1138 13.5289C11.5102 13.5289 12.6422 12.3969 12.6422 11.0005C12.6422 9.60407 11.5102 8.47205 10.1138 8.47205C8.71735 8.47205 7.58533 9.60407 7.58533 11.0005C7.58533 12.3969 8.71735 13.5289 10.1138 13.5289Z" stroke="#888A8E" stroke-width="1.68563" stroke-linecap="round" stroke-linejoin="round"/>
<path d="M13.4851 14.3731L11.8838 12.7717" stroke="#888A8E" stroke-width="1.68563" stroke-linecap="round" stroke-linejoin="round"/>
</svg>
