<svg width="106" height="1002" viewBox="0 0 106 1002" fill="none" xmlns="http://www.w3.org/2000/svg">
<g filter="url(#filter0_d_1_590)">
<rect x="21" y="77" width="63.9219" height="900" fill="#FCFAFF"/>
</g>
<path fill-rule="evenodd" clip-rule="evenodd" d="M47.1711 264.832V271.576C47.1711 272.364 47.8101 273.003 48.5985 273.003H58.1142C58.9026 273.003 59.5416 272.364 59.5416 271.576V264.832C60.3812 265.693 61.7168 265.876 62.6425 265.012L64.5518 263.229C65.2299 262.596 65.433 261.584 65.011 260.734C64.0552 258.809 63.096 257.27 61.7528 256.148C60.3883 255.008 58.7148 254.367 56.4592 254.058C55.5853 253.938 54.7601 254.385 54.3471 255.119L53.3564 256.879L52.3657 255.119C51.9527 254.385 51.1274 253.938 50.2536 254.058C47.9978 254.367 46.3243 255.008 44.96 256.148C43.6168 257.27 42.6578 258.809 41.7017 260.734C41.2798 261.584 41.4829 262.596 42.1609 263.229L44.0703 265.012C44.996 265.876 46.3316 265.693 47.1712 264.832H47.1711ZM45.3689 263.62C45.4635 263.709 45.6113 263.705 45.7017 263.613C46.0175 263.289 47.1701 262.481 47.1711 262.01V259.68C47.1711 259.155 47.597 258.729 48.1225 258.729C48.6481 258.729 49.0742 259.155 49.0742 259.68V271.1H52.4047V259.068L50.7073 256.053C50.6577 255.965 50.5733 255.935 50.5126 255.943C48.4909 256.221 47.1906 256.764 46.1802 257.608C45.1485 258.471 44.3316 259.717 43.4062 261.581C43.368 261.658 43.3809 261.764 43.4596 261.838L45.3689 263.62ZM54.308 259.067V271.099H57.6386V259.68C57.6386 259.155 58.0647 258.729 58.5902 258.729C59.1158 258.729 59.5417 259.155 59.5417 259.68V262.009C59.5417 262.48 60.6955 263.289 61.0111 263.613C61.1015 263.705 61.2493 263.709 61.3439 263.62L63.253 261.838C63.3318 261.764 63.3448 261.658 63.3065 261.581C62.3812 259.717 61.5643 258.471 60.5326 257.608C59.5222 256.764 58.2218 256.221 56.2002 255.943C56.1395 255.935 56.055 255.965 56.0054 256.053L54.308 259.067Z" fill="#707494"/>
<path d="M57.5435 331.669C56.672 331.669 55.8364 332.015 55.2202 332.632C54.6039 333.248 54.2578 334.084 54.2578 334.955C54.2578 335.826 54.6039 336.662 55.2202 337.278C55.8364 337.894 56.672 338.24 57.5435 338.24C58.4148 338.24 59.2506 337.894 59.8668 337.278C60.4829 336.662 60.829 335.826 60.829 334.955C60.8284 334.084 60.4819 333.248 59.866 332.633C59.2499 332.016 58.4146 331.67 57.5435 331.669L57.5435 331.669ZM57.5435 336.218C57.2075 336.218 56.8851 336.085 56.6477 335.847C56.41 335.609 56.2768 335.287 56.277 334.951C56.2772 334.615 56.411 334.293 56.6491 334.055C56.8869 333.818 57.2093 333.685 57.5453 333.686C57.8813 333.686 58.2034 333.82 58.4405 334.058C58.6777 334.296 58.8105 334.619 58.8097 334.955C58.8089 335.29 58.6753 335.611 58.4379 335.848C58.2004 336.085 57.8787 336.218 57.5435 336.218Z" fill="#707494"/>
<path d="M62.6204 318.631H45.7685L45.3589 316.923C45.217 316.323 44.8766 315.789 44.3926 315.407C43.9087 315.026 43.3099 314.819 42.6936 314.82H39.5436C39.1828 314.82 38.8495 315.013 38.6693 315.325C38.4888 315.637 38.4888 316.022 38.6693 316.335C38.8495 316.647 39.1828 316.839 39.5436 316.839H42.7168C43.0508 316.839 43.3411 317.068 43.4176 317.393L45.9187 327.925C46.1203 328.778 46.6043 329.537 47.2918 330.079C47.9796 330.622 48.8303 330.916 49.7062 330.914H57.9562C58.8377 330.918 59.6945 330.622 60.3853 330.074C61.0758 329.526 61.5589 328.759 61.7552 327.899L63.6186 319.869V319.869C63.6889 319.566 63.6158 319.248 63.421 319.007C63.226 318.765 62.9309 318.627 62.6206 318.631L62.6204 318.631ZM59.7819 327.443C59.6859 327.855 59.4529 328.222 59.1213 328.484C58.7895 328.746 58.3786 328.887 57.9561 328.886H49.7061C49.2839 328.886 48.8741 328.744 48.543 328.482C48.212 328.22 47.9792 327.854 47.8829 327.443L46.2532 320.65H61.3599L59.7819 327.443Z" fill="#707494"/>
<path d="M49.3511 331.669C48.4803 331.672 47.646 332.019 47.0315 332.637C46.417 333.254 46.0728 334.09 46.0744 334.961C46.0758 335.831 46.4231 336.666 47.0396 337.281C47.6563 337.896 48.4919 338.241 49.3628 338.24C50.2337 338.24 51.0685 337.893 51.6842 337.277C52.2998 336.661 52.6454 335.826 52.6454 334.955C52.6446 334.082 52.2971 333.246 51.6792 332.629C51.0613 332.013 50.2238 331.668 49.3511 331.669V331.669ZM49.3511 336.218C49.0151 336.218 48.693 336.085 48.4555 335.847C48.2179 335.609 48.0847 335.287 48.0849 334.951C48.0851 334.615 48.2189 334.293 48.4567 334.056C48.6948 333.818 49.0171 333.685 49.3531 333.686C49.6892 333.686 50.0111 333.82 50.2483 334.058C50.4856 334.296 50.6184 334.619 50.6176 334.955C50.6168 335.29 50.483 335.612 50.2457 335.848C50.0083 336.085 49.6866 336.218 49.3511 336.218Z" fill="#707494"/>
<rect x="34.2063" y="88.8234" width="38" height="38" rx="6.33333" fill="#5D5FEF"/>
<rect x="52.0756" y="98.8504" width="1.69643" height="9.04762" fill="white"/>
<rect x="52.0201" y="97.5035" width="1.69643" height="15.0046" transform="rotate(51.8154 52.0201 97.5035)" fill="white"/>
<rect x="52.3674" y="108.201" width="1.69643" height="12.6055" transform="rotate(33.096 52.3674 108.201)" fill="white"/>
<rect x="40.5537" y="108.168" width="1.69643" height="12.6055" transform="rotate(-24.7049 40.5537 108.168)" fill="white"/>
<rect x="64.3398" y="107.411" width="1.69643" height="11.8788" transform="rotate(27.4657 64.3398 107.411)" fill="white"/>
<rect x="40.1407" y="108.921" width="1.69643" height="21.9476" transform="rotate(-62.2575 40.1407 108.921)" fill="white"/>
<rect x="65.3597" y="107.842" width="1.69643" height="22.1259" transform="rotate(62.9104 65.3597 107.842)" fill="white"/>
<circle cx="53.2063" cy="97.7216" r="2.2619" fill="white"/>
<circle cx="53.2063" cy="107.901" r="2.2619" fill="white"/>
<circle cx="41.8972" cy="107.901" r="2.2619" fill="white"/>
<circle cx="46.4204" cy="118.079" r="2.2619" fill="white"/>
<circle cx="64.5163" cy="107.901" r="2.2619" fill="white"/>
<circle cx="59.9922" cy="118.079" r="2.2619" fill="white"/>
<g clip-path="url(#clip0_1_590)">
<path fill-rule="evenodd" clip-rule="evenodd" d="M44.0505 668.875C44.8916 668.034 46.0323 667.561 47.2218 667.561H54.3976C55.587 667.561 56.7278 668.034 57.5689 668.875C58.4099 669.716 58.8824 670.857 58.8824 672.046V673.84C58.8824 674.336 58.4809 674.737 57.9855 674.737C57.4901 674.737 57.0885 674.336 57.0885 673.84V672.046C57.0885 671.333 56.805 670.648 56.3003 670.144C55.7957 669.639 55.1113 669.355 54.3976 669.355H47.2218C46.5081 669.355 45.8237 669.639 45.319 670.144C44.8144 670.648 44.5309 671.333 44.5309 672.046V673.84C44.5309 674.336 44.1293 674.737 43.6339 674.737C43.1385 674.737 42.7369 674.336 42.7369 673.84V672.046C42.7369 670.857 43.2094 669.716 44.0505 668.875Z" fill="#707494"/>
<path fill-rule="evenodd" clip-rule="evenodd" d="M50.8097 658.592C49.3235 658.592 48.1188 659.797 48.1188 661.283C48.1188 662.769 49.3235 663.974 50.8097 663.974C52.2958 663.974 53.5006 662.769 53.5006 661.283C53.5006 659.797 52.2958 658.592 50.8097 658.592ZM46.3248 661.283C46.3248 658.806 48.3328 656.798 50.8097 656.798C53.2866 656.798 55.2946 658.806 55.2946 661.283C55.2946 663.76 53.2866 665.768 50.8097 665.768C48.3328 665.768 46.3248 663.76 46.3248 661.283Z" fill="#707494"/>
<path fill-rule="evenodd" clip-rule="evenodd" d="M59.8079 668.351C59.9318 667.871 60.421 667.583 60.9006 667.707C61.8628 667.955 62.7152 668.516 63.324 669.301C63.9328 670.087 64.2635 671.052 64.2643 672.046L64.2643 673.84C64.2643 674.336 63.8627 674.737 63.3673 674.737C62.8719 674.737 62.4703 674.336 62.4703 673.84V672.047C62.4703 672.047 62.4703 672.047 62.4703 672.047C62.4698 671.451 62.2714 670.872 61.9062 670.4C61.5409 669.929 61.0294 669.593 60.4522 669.444C59.9725 669.32 59.6841 668.83 59.8079 668.351Z" fill="#707494"/>
<path fill-rule="evenodd" clip-rule="evenodd" d="M56.2196 657.589C56.3424 657.109 56.8311 656.82 57.311 656.942C58.2757 657.189 59.1308 657.751 59.7414 658.537C60.352 659.324 60.6834 660.291 60.6834 661.287C60.6834 662.283 60.352 663.251 59.7414 664.037C59.1308 664.824 58.2757 665.385 57.311 665.632C56.8311 665.755 56.3424 665.465 56.2196 664.985C56.0967 664.506 56.3861 664.017 56.866 663.894C57.4448 663.746 57.9579 663.409 58.3243 662.937C58.6906 662.465 58.8895 661.885 58.8895 661.287C58.8895 660.69 58.6906 660.109 58.3243 659.637C57.9579 659.165 57.4448 658.829 56.866 658.68C56.3861 658.557 56.0967 658.069 56.2196 657.589Z" fill="#707494"/>
</g>
<path fill-rule="evenodd" clip-rule="evenodd" d="M45.4479 722.911V738.768C45.4479 739.106 45.6512 739.41 45.9631 739.54C46.2749 739.669 46.6337 739.597 46.8724 739.358L47.9516 738.279L49.0307 739.358C49.3565 739.684 49.8851 739.684 50.2108 739.358L51.2899 738.279L52.3691 739.358C52.6949 739.684 53.2235 739.684 53.5491 739.358L54.6283 738.279L55.7074 739.358C56.0333 739.684 56.5618 739.684 56.8875 739.358L57.9666 738.279L59.0458 739.358C59.2845 739.597 59.6433 739.669 59.9551 739.54C60.267 739.41 60.4704 739.106 60.4704 738.768V722.911H62.1396C63.5215 722.911 64.6433 721.789 64.6433 720.408V717.069C64.6433 715.687 63.5213 714.566 62.1396 714.566H43.7787C42.3968 714.566 41.275 715.688 41.275 717.069V720.408C41.275 721.789 42.397 722.911 43.7787 722.911H45.4479ZM58.8013 719.573H47.117V736.753L47.3616 736.509C47.6874 736.183 48.216 736.183 48.5416 736.509L49.6208 737.588L50.6999 736.509C51.0257 736.183 51.5543 736.183 51.88 736.509L52.9591 737.588L54.0383 736.509C54.3641 736.183 54.8927 736.183 55.2183 736.509L56.2975 737.588L57.3766 736.509C57.7024 736.183 58.231 736.183 58.5567 736.509L58.8012 736.753V719.573H58.8013ZM49.6208 732.926H56.2975C56.7582 732.926 57.1321 732.552 57.1321 732.092C57.1321 731.631 56.7582 731.257 56.2975 731.257H49.6208C49.1601 731.257 48.7862 731.631 48.7862 732.092C48.7862 732.552 49.1601 732.926 49.6208 732.926ZM49.6208 728.753H56.2975C56.7582 728.753 57.1321 728.379 57.1321 727.919C57.1321 727.458 56.7582 727.084 56.2975 727.084H49.6208C49.1601 727.084 48.7862 727.458 48.7862 727.919C48.7862 728.379 49.1601 728.753 49.6208 728.753ZM49.6208 724.58H56.2975C56.7582 724.58 57.1321 724.206 57.1321 723.746C57.1321 723.285 56.7582 722.911 56.2975 722.911H49.6208C49.1601 722.911 48.7862 723.285 48.7862 723.746C48.7862 724.206 49.1601 724.58 49.6208 724.58ZM60.4705 721.242H62.1397C62.6004 721.242 62.9744 720.868 62.9744 720.407V717.069C62.9744 716.608 62.6004 716.235 62.1397 716.235H43.7788C43.3181 716.235 42.9442 716.608 42.9442 717.069V720.407C42.9442 720.868 43.3181 721.242 43.7788 721.242H45.4481V719.573C44.9874 719.573 44.6134 719.199 44.6134 718.738C44.6134 718.277 44.9874 717.904 45.4481 717.904H60.4706C60.9313 717.904 61.3053 718.277 61.3053 718.738C61.3053 719.199 60.9313 719.573 60.4706 719.573L60.4705 721.242Z" fill="#707494"/>
<path d="M43.171 784.872V800.152C43.171 800.911 43.4728 801.64 44.0102 802.178C44.5475 802.715 45.2762 803.017 46.036 803.017H59.406C60.1657 803.017 60.8945 802.715 61.4318 802.178C61.9692 801.64 62.271 800.912 62.271 800.152V784.872C62.271 784.112 61.9692 783.383 61.4318 782.846C60.8945 782.309 60.1657 782.007 59.406 782.007H58.4509V781.052C58.4509 780.711 58.2689 780.395 57.9734 780.225C57.678 780.054 57.3139 780.054 57.0185 780.225C56.7231 780.395 56.5411 780.711 56.5411 781.052V782.007H53.6759V781.052C53.6759 780.711 53.4939 780.395 53.1985 780.225C52.903 780.054 52.539 780.054 52.2436 780.225C51.9481 780.395 51.7661 780.711 51.7661 781.052V782.007H48.901V781.052C48.901 780.711 48.719 780.395 48.4235 780.225C48.1281 780.054 47.764 780.054 47.4686 780.225C47.1732 780.395 46.9912 780.711 46.9912 781.052V782.007H46.0361C45.2764 782.007 44.5476 782.309 44.0103 782.846C43.4729 783.383 43.1711 784.112 43.1711 784.872H43.171ZM47.946 785.827C48.1993 785.827 48.4421 785.726 48.6213 785.547C48.8004 785.368 48.9009 785.125 48.9009 784.872V783.917H51.7661V784.872C51.7661 785.213 51.9481 785.528 52.2435 785.699C52.539 785.869 52.903 785.869 53.1984 785.699C53.4939 785.528 53.6759 785.213 53.6759 784.872V783.917H56.541V784.872C56.541 785.213 56.723 785.528 57.0185 785.699C57.3139 785.869 57.678 785.869 57.9734 785.699C58.2688 785.528 58.4508 785.213 58.4508 784.872V783.917H59.4059C59.6592 783.917 59.902 784.017 60.0812 784.196C60.2603 784.376 60.3608 784.618 60.3608 784.872V800.152C60.3608 800.405 60.2603 800.648 60.0812 800.827C59.902 801.006 59.6592 801.107 59.4059 801.107H46.036C45.7826 801.107 45.5398 801.006 45.3606 800.827C45.1816 800.648 45.081 800.405 45.081 800.152V784.872C45.081 784.618 45.1816 784.376 45.3606 784.196C45.5398 784.017 45.7826 783.917 46.036 783.917H46.9909V784.872H46.991C46.991 785.125 47.0916 785.368 47.2706 785.547C47.4498 785.726 47.6927 785.827 47.946 785.827Z" fill="#707494"/>
<path d="M57.496 792.511H47.946C47.6048 792.511 47.2895 792.693 47.119 792.989C46.9485 793.284 46.9485 793.648 47.119 793.944C47.2895 794.239 47.6048 794.421 47.946 794.421H57.496C57.8372 794.421 58.1524 794.239 58.323 793.944C58.4935 793.648 58.4935 793.284 58.323 792.989C58.1524 792.693 57.8372 792.511 57.496 792.511Z" fill="#707494"/>
<path d="M57.496 796.332H47.946C47.6048 796.332 47.2895 796.514 47.119 796.809C46.9485 797.105 46.9485 797.469 47.119 797.765C47.2895 798.06 47.6048 798.242 47.946 798.242H57.496C57.8372 798.242 58.1524 798.06 58.323 797.765C58.4935 797.469 58.4935 797.105 58.323 796.809C58.1524 796.514 57.8372 796.332 57.496 796.332Z" fill="#707494"/>
<path d="M47.946 790.602H57.496C57.8372 790.602 58.1524 790.42 58.323 790.124C58.4935 789.829 58.4935 789.465 58.323 789.169C58.1524 788.874 57.8372 788.692 57.496 788.692H47.946C47.6048 788.692 47.2895 788.874 47.119 789.169C46.9485 789.465 46.9485 789.829 47.119 790.124C47.2895 790.42 47.6048 790.602 47.946 790.602Z" fill="#707494"/>
<path d="M41.9616 848.362H42.9615V859.362C42.9615 860.158 43.2775 860.921 43.8402 861.484C44.4028 862.046 45.1659 862.362 45.9615 862.362H50.5462L46.2539 866.655C46.0011 866.908 45.9024 867.276 45.995 867.621C46.0874 867.967 46.3572 868.236 46.7025 868.329C47.0478 868.421 47.416 868.323 47.6689 868.07L51.9614 863.777V869.362C51.9614 869.72 52.152 870.05 52.4613 870.228C52.7707 870.407 53.1519 870.407 53.4612 870.228C53.7706 870.05 53.9612 869.72 53.9612 869.362V863.777L58.2536 868.07C58.5065 868.323 58.8748 868.421 59.2201 868.329C59.5653 868.236 59.8351 867.967 59.9276 867.621C60.0202 867.276 59.9215 866.908 59.6686 866.655L55.3763 862.362H59.9611C60.7566 862.362 61.5197 862.046 62.0823 861.484C62.645 860.921 62.9611 860.158 62.9611 859.362V848.362H63.961C64.3183 848.362 64.6484 848.172 64.8271 847.862C65.0057 847.553 65.0057 847.172 64.8271 846.862C64.6484 846.553 64.3183 846.362 63.961 846.362H41.9611C41.6038 846.362 41.2737 846.553 41.095 846.862C40.9164 847.172 40.9164 847.553 41.095 847.862C41.2737 848.172 41.6038 848.362 41.9611 848.362H41.9616ZM60.9614 848.362L60.9613 859.362C60.9613 859.628 60.8559 859.882 60.6685 860.069C60.4808 860.257 60.2266 860.362 59.9613 860.362H45.9614C45.6962 860.362 45.4419 860.257 45.2543 860.069C45.0668 859.882 44.9615 859.628 44.9615 859.362V848.362H60.9614Z" fill="#707494"/>
<path d="M48.6691 857.068L50.9616 854.776L53.254 857.068C53.4417 857.256 53.6961 857.362 53.9615 857.362C54.227 857.362 54.4815 857.256 54.669 857.068L58.6691 853.068V853.069C58.922 852.816 59.0207 852.447 58.9281 852.102C58.8356 851.757 58.5659 851.487 58.2206 851.395C57.8753 851.302 57.5068 851.401 57.2541 851.654L53.9616 854.946L51.6691 852.654C51.4816 852.466 51.227 852.36 50.9616 852.36C50.6962 852.36 50.4417 852.466 50.2541 852.654L47.2542 855.653C47.0013 855.906 46.9026 856.275 46.9952 856.62C47.0876 856.965 47.3574 857.235 47.7027 857.327C48.048 857.42 48.4164 857.321 48.6691 857.068L48.6691 857.068Z" fill="#707494"/>
<rect x="30.7725" y="168.537" width="44.377" height="44.377" rx="13.1108" fill="#F2F1FE"/>
<path d="M46.5259 186.84C46.5259 186.357 46.1346 185.966 45.6521 185.966C45.1693 185.966 44.7782 186.357 44.7782 186.84V197.281C44.7782 198.917 46.1042 200.243 47.7401 200.243H58.1812C59.817 200.243 61.1431 198.917 61.1431 197.281V186.84C61.1431 186.357 60.7518 185.966 60.2693 185.966C59.7867 185.966 59.3954 186.357 59.3954 186.84V197.281C59.3954 197.951 58.8519 198.495 58.1812 198.495H47.7401C47.0696 198.495 46.5259 197.951 46.5259 197.281V186.84Z" fill="#5D5FEF" stroke="#5D5FEF" stroke-width="0.181598"/>
<path fill-rule="evenodd" clip-rule="evenodd" d="M51.0893 191.582C51.0893 190.549 51.927 189.711 52.9604 189.711C53.9938 189.711 54.8315 190.549 54.8315 191.582C54.8315 192.615 53.9938 193.453 52.9604 193.453C51.927 193.453 51.0893 192.615 51.0893 191.582Z" fill="#5D5FEF"/>
<path d="M53.6572 183.173L53.6572 183.173L62.9007 189.644C63.2961 189.92 63.8409 189.824 64.1177 189.429C64.3944 189.033 64.2983 188.489 63.9029 188.212L54.6597 181.741L54.6596 181.741C53.6396 181.028 52.2822 181.028 51.2623 181.741L51.3143 181.816L51.2623 181.741L42.019 188.212L42.0711 188.286L42.019 188.212C41.6237 188.489 41.5275 189.033 41.8043 189.429C42.0811 189.824 42.6259 189.92 43.0212 189.644L52.2645 183.173L52.2124 183.099L52.2645 183.173C52.6826 182.88 53.2391 182.88 53.6572 183.173Z" fill="#5D5FEF" stroke="#5D5FEF" stroke-width="0.181598"/>
<path fill-rule="evenodd" clip-rule="evenodd" d="M46 388C45.4477 388 45 388.448 45 389V403C45 403.552 45.4477 404 46 404H60C60.5523 404 61 403.552 61 403V389C61 388.448 60.5523 388 60 388H46ZM43 389C43 387.343 44.3432 386 46 386H60C61.6569 386 63 387.343 63 389V403C63 404.657 61.6569 406 60 406H46C44.3432 406 43 404.657 43 403V389Z" fill="#707494"/>
<path fill-rule="evenodd" clip-rule="evenodd" d="M57 384C57.5523 384 58 384.448 58 385V389C58 389.552 57.5523 390 57 390C56.4477 390 56 389.552 56 389V385C56 384.448 56.4477 384 57 384Z" fill="#707494"/>
<path fill-rule="evenodd" clip-rule="evenodd" d="M49 384C49.5523 384 50 384.448 50 385V389C50 389.552 49.5523 390 49 390C48.4477 390 48 389.552 48 389V385C48 384.448 48.4477 384 49 384Z" fill="#707494"/>
<path fill-rule="evenodd" clip-rule="evenodd" d="M43 393C43 392.448 43.4477 392 44 392H62C62.5523 392 63 392.448 63 393C63 393.552 62.5523 394 62 394H44C43.4477 394 43 393.552 43 393Z" fill="#707494"/>
<g clip-path="url(#clip1_1_590)">
<path fill-rule="evenodd" clip-rule="evenodd" d="M41 453C41 452.448 41.4477 452 42 452H57C57.5523 452 58 452.448 58 453V466C58 466.552 57.5523 467 57 467H42C41.4477 467 41 466.552 41 466V453ZM43 454V465H56V454H43Z" fill="#707494"/>
<path fill-rule="evenodd" clip-rule="evenodd" d="M56 458C56 457.448 56.4477 457 57 457H61C61.2652 457 61.5196 457.105 61.7071 457.293L64.7071 460.293C64.8947 460.48 65 460.735 65 461V466C65 466.552 64.5523 467 64 467H57C56.4477 467 56 466.552 56 466V458ZM58 459V465H63V461.414L60.5858 459H58Z" fill="#707494"/>
<path fill-rule="evenodd" clip-rule="evenodd" d="M46.5 467C45.6716 467 45 467.672 45 468.5C45 469.328 45.6716 470 46.5 470C47.3285 470 48 469.328 48 468.5C48 467.672 47.3285 467 46.5 467ZM43 468.5C43 466.567 44.567 465 46.5 465C48.433 465 50 466.567 50 468.5C50 470.433 48.433 472 46.5 472C44.567 472 43 470.433 43 468.5Z" fill="#707494"/>
<path fill-rule="evenodd" clip-rule="evenodd" d="M59.5 467C58.6716 467 58 467.672 58 468.5C58 469.328 58.6716 470 59.5 470C60.3285 470 61 469.328 61 468.5C61 467.672 60.3285 467 59.5 467ZM56 468.5C56 466.567 57.567 465 59.5 465C61.433 465 63 466.567 63 468.5C63 470.433 61.433 472 59.5 472C57.567 472 56 470.433 56 468.5Z" fill="#707494"/>
</g>
<g clip-path="url(#clip2_1_590)">
<path fill-rule="evenodd" clip-rule="evenodd" d="M52.5559 519.345C52.5556 519.345 52.5553 519.345 52.555 519.345L44.5572 523.344L44.555 523.345C44.3884 523.428 44.2482 523.556 44.1502 523.714C44.0522 523.872 44.0002 524.054 44 524.24C44 524.24 44 524.24 44 524.24V533.767C43.9987 533.953 44.0495 534.136 44.1467 534.295C44.2437 534.454 44.3831 534.583 44.5492 534.666C44.5489 534.666 44.5495 534.667 44.5492 534.666L52.5472 538.665C52.6862 538.735 52.8397 538.771 52.995 538.771C53.1504 538.771 53.3036 538.735 53.4425 538.666L61.4428 534.665L61.445 534.664C61.6116 534.582 61.7518 534.454 61.8499 534.296C61.9479 534.138 61.9999 533.955 62 533.769V524.24C61.9999 524.054 61.9479 523.872 61.8499 523.714C61.7518 523.556 61.6116 523.428 61.445 523.345L61.4428 523.344L53.445 519.345C53.4447 519.345 53.4444 519.345 53.4441 519.345C53.3061 519.277 53.1541 519.241 53 519.241C52.846 519.241 52.694 519.277 52.5559 519.345ZM53.89 518.45L54.335 517.554C53.9202 517.348 53.4633 517.241 53 517.241C52.5368 517.241 52.0799 517.348 51.665 517.554L51.6628 517.555L43.665 521.554C43.6646 521.555 43.6642 521.555 43.6638 521.555C43.1645 521.803 42.7443 522.186 42.4505 522.66C42.1563 523.134 42.0003 523.681 42 524.239L42 533.757C41.9969 534.315 42.1493 534.862 42.4401 535.338C42.7317 535.815 43.1508 536.201 43.6501 536.453L43.6528 536.454L51.6525 540.454C52.0693 540.663 52.529 540.771 52.995 540.771C53.461 540.771 53.9205 540.663 54.3372 540.454C54.3372 540.454 54.3373 540.454 54.3372 540.454L62.335 536.455C62.3354 536.455 62.3357 536.455 62.336 536.455C62.8354 536.207 63.2557 535.824 63.5496 535.35C63.8438 534.876 63.9997 534.329 64 533.77V524.24C63.9997 523.682 63.8438 523.134 63.5496 522.66C63.2557 522.186 62.8356 521.803 62.3363 521.555C62.3359 521.555 62.3355 521.555 62.335 521.554L54.3372 517.555L53.89 518.45Z" fill="#707494"/>
<path fill-rule="evenodd" clip-rule="evenodd" d="M42.4256 522.713C42.6726 522.219 43.2733 522.018 43.7672 522.265L53 526.882L62.2328 522.265C62.7268 522.018 63.3275 522.219 63.5745 522.713C63.8215 523.207 63.6212 523.807 63.1272 524.054L53.4472 528.894C53.1657 529.035 52.8343 529.035 52.5528 528.894L42.8728 524.054C42.3788 523.807 42.1786 523.207 42.4256 522.713Z" fill="#707494"/>
<path fill-rule="evenodd" clip-rule="evenodd" d="M53 527C53.5523 527 54 527.448 54 528V539.76C54 540.312 53.5523 540.76 53 540.76C52.4477 540.76 52 540.312 52 539.76V528C52 527.448 52.4477 527 53 527Z" fill="#707494"/>
<path fill-rule="evenodd" clip-rule="evenodd" d="M47.1056 520.053C47.3526 519.559 47.9533 519.358 48.4472 519.605L58.4472 524.605C58.9412 524.852 59.1414 525.453 58.8945 525.947C58.6475 526.441 58.0468 526.641 57.5528 526.394L47.5528 521.394C47.0588 521.147 46.8586 520.547 47.1056 520.053Z" fill="#707494"/>
</g>
<circle cx="53" cy="616.332" r="2.54785" fill="#FC5C65"/>
<path fill-rule="evenodd" clip-rule="evenodd" d="M45 592C45 592.001 45 592.005 45.0031 592.015C45.0065 592.026 45.0149 592.048 45.0351 592.081C45.0776 592.151 45.1641 592.254 45.3263 592.382C45.6564 592.643 46.1962 592.921 46.9523 593.173C48.4541 593.673 50.5923 594 53 594C55.4077 594 57.546 593.673 59.0478 593.173C59.8039 592.921 60.3436 592.643 60.6738 592.382C60.836 592.254 60.9225 592.151 60.965 592.081C60.9852 592.048 60.9936 592.026 60.997 592.015C61 592.005 61 592.001 61 592C61 591.999 61.0001 591.995 60.997 591.985C60.9936 591.974 60.9852 591.952 60.965 591.919C60.9225 591.849 60.836 591.745 60.6738 591.618C60.3436 591.357 59.8039 591.079 59.0478 590.827C57.546 590.327 55.4077 590 53 590C50.5923 590 48.4541 590.327 46.9523 590.827C46.1962 591.079 45.6564 591.357 45.3263 591.618C45.1641 591.745 45.0776 591.849 45.0351 591.919C45.0149 591.952 45.0065 591.974 45.0031 591.985C45 591.995 45 591.999 45 592ZM46.3198 588.93C48.0754 588.345 50.4372 588 53 588C55.5629 588 57.9246 588.345 59.6802 588.93C60.5528 589.221 61.3311 589.589 61.9117 590.047C62.4811 590.496 63 591.148 63 592C63 592.852 62.4811 593.504 61.9117 593.953C61.3311 594.411 60.5528 594.779 59.6802 595.07C57.9246 595.655 55.5629 596 53 596C50.4372 596 48.0754 595.655 46.3198 595.07C45.4473 594.779 44.669 594.411 44.0883 593.953C43.5189 593.504 43 592.852 43 592C43 591.148 43.5189 590.496 44.0883 590.047C44.669 589.589 45.4473 589.221 46.3198 588.93Z" fill="#707494"/>
<path fill-rule="evenodd" clip-rule="evenodd" d="M44 598C44.5523 598 45 598.448 45 599C45 599.002 45.0001 599.007 45.0034 599.018C45.007 599.03 45.0155 599.052 45.0356 599.085C45.0777 599.154 45.1635 599.258 45.3242 599.385C45.6516 599.645 46.1879 599.922 46.9417 600.174C48.4389 600.674 50.5768 601 53 601C55.4233 601 57.5611 600.674 59.0584 600.174C59.8122 599.922 60.3484 599.645 60.6758 599.385C60.8365 599.258 60.9223 599.154 60.9645 599.085C60.9846 599.052 60.9931 599.03 60.9966 599.018C61 599.007 61 599.002 61 599C61 598.448 61.4477 598 62 598C62.5523 598 63 598.448 63 599C63 599.849 62.4868 600.502 61.918 600.953C61.3391 601.411 60.5629 601.78 59.6917 602.071C57.9389 602.656 55.5768 603 53 603C50.4233 603 48.0611 602.656 46.3084 602.071C45.4372 601.78 44.6609 601.411 44.0821 600.953C43.5132 600.502 43 599.849 43 599C43 598.448 43.4477 598 44 598Z" fill="#707494"/>
<path fill-rule="evenodd" clip-rule="evenodd" d="M44 591C44.5523 591 45 591.448 45 592V606C45 606.002 45.0001 606.007 45.0034 606.018C45.007 606.03 45.0155 606.052 45.0356 606.085C45.0777 606.154 45.1635 606.258 45.3242 606.385C45.6516 606.645 46.1879 606.922 46.9417 607.174C48.4389 607.674 50.5768 608 53 608C55.4233 608 57.5611 607.674 59.0584 607.174C59.8122 606.922 60.3484 606.645 60.6758 606.385C60.8365 606.258 60.9223 606.154 60.9645 606.085C60.9846 606.052 60.9931 606.03 60.9966 606.018C61 606.007 61 606.002 61 606V592C61 591.448 61.4477 591 62 591C62.5523 591 63 591.448 63 592V606C63 606.849 62.4868 607.502 61.918 607.953C61.3391 608.411 60.5629 608.78 59.6917 609.071C57.9389 609.656 55.5768 610 53 610C50.4233 610 48.0611 609.656 46.3084 609.071C45.4372 608.78 44.6609 608.411 44.0821 607.953C43.5132 607.502 43 606.849 43 606V592C43 591.448 43.4477 591 44 591Z" fill="#707494"/>
<defs>
<filter id="filter0_d_1_590" x="0" y="60" width="105.922" height="942" filterUnits="userSpaceOnUse" color-interpolation-filters="sRGB">
<feFlood flood-opacity="0" result="BackgroundImageFix"/>
<feColorMatrix in="SourceAlpha" type="matrix" values="0 0 0 0 0 0 0 0 0 0 0 0 0 0 0 0 0 0 127 0" result="hardAlpha"/>
<feMorphology radius="14" operator="erode" in="SourceAlpha" result="effect1_dropShadow_1_590"/>
<feOffset dy="4"/>
<feGaussianBlur stdDeviation="17.5"/>
<feColorMatrix type="matrix" values="0 0 0 0 0 0 0 0 0 0 0 0 0 0 0 0 0 0 0.15 0"/>
<feBlend mode="normal" in2="BackgroundImageFix" result="effect1_dropShadow_1_590"/>
<feBlend mode="normal" in="SourceGraphic" in2="effect1_dropShadow_1_590" result="shape"/>
</filter>
<clipPath id="clip0_1_590">
<rect width="21.5273" height="21.5273" fill="white" transform="translate(42.7369 655.004)"/>
</clipPath>
<clipPath id="clip1_1_590">
<rect width="24" height="24" fill="white" transform="translate(41 450)"/>
</clipPath>
<clipPath id="clip2_1_590">
<rect width="24" height="24" fill="white" transform="translate(41 517)"/>
</clipPath>
</defs>
</svg>
