<svg width="25" height="25" viewBox="0 0 25 25" fill="none" xmlns="http://www.w3.org/2000/svg">
<g clip-path="url(#clip0_1_104)">
<path d="M12.4988 22.9168C6.7457 22.9168 2.08215 18.2532 2.08215 12.5001C2.08215 6.74696 6.7457 2.08342 12.4988 2.08342C18.2519 2.08342 22.9155 6.74696 22.9155 12.5001C22.9155 18.2532 18.2519 22.9168 12.4988 22.9168ZM12.4988 20.8334C14.709 20.8334 16.8286 19.9554 18.3914 18.3926C19.9542 16.8298 20.8322 14.7102 20.8322 12.5001C20.8322 10.2899 19.9542 8.17033 18.3914 6.60753C16.8286 5.04473 14.709 4.16675 12.4988 4.16675C10.2887 4.16675 8.16907 5.04473 6.60626 6.60753C5.04346 8.17033 4.16549 10.2899 4.16549 12.5001C4.16549 14.7102 5.04346 16.8298 6.60626 18.3926C8.16907 19.9554 10.2887 20.8334 12.4988 20.8334ZM11.4572 15.6251H13.5405V17.7084H11.4572V15.6251ZM13.5405 13.9115V14.5834H11.4572V13.0209C11.4572 12.7447 11.5669 12.4797 11.7622 12.2844C11.9576 12.089 12.2226 11.9793 12.4988 11.9793C12.7947 11.9792 13.0846 11.8952 13.3346 11.7369C13.5846 11.5786 13.7845 11.3525 13.9111 11.0851C14.0377 10.8176 14.0857 10.5197 14.0495 10.226C14.0134 9.93226 13.8946 9.65486 13.707 9.42604C13.5194 9.19721 13.2706 9.02637 12.9897 8.93339C12.7087 8.84041 12.4072 8.82911 12.1201 8.90082C11.833 8.97253 11.5722 9.12428 11.368 9.33844C11.1637 9.55259 11.0245 9.82033 10.9665 10.1105L8.92278 9.70113C9.04948 9.06788 9.34206 8.47964 9.77061 7.99653C10.1992 7.51342 10.7483 7.15278 11.3619 6.95146C11.9755 6.75015 12.6316 6.71538 13.2631 6.85073C13.8945 6.98607 14.4787 7.28666 14.9559 7.72178C15.4331 8.15689 15.7862 8.71093 15.9791 9.32724C16.1721 9.94355 16.1978 10.6 16.0539 11.2296C15.9099 11.8591 15.6014 12.4391 15.1598 12.9104C14.7182 13.3816 14.1594 13.7271 13.5405 13.9115Z" fill="#67768E"/>
</g>
<defs>
<clipPath id="clip0_1_104">
<rect width="25" height="25" fill="white" transform="translate(-0.000488281)"/>
</clipPath>
</defs>
</svg>
