<svg width="24" height="24" viewBox="0 0 24 24" fill="none" xmlns="http://www.w3.org/2000/svg">
<g clip-path="url(#clip0_1_98)">
<path d="M4.99951 18H18.9995V11.031C18.9995 7.148 15.8655 4 11.9995 4C8.13351 4 4.99951 7.148 4.99951 11.031V18ZM11.9995 2C16.9695 2 20.9995 6.043 20.9995 11.031V20H2.99951V11.031C2.99951 6.043 7.02951 2 11.9995 2ZM9.49951 21H14.4995C14.4995 21.663 14.2361 22.2989 13.7673 22.7678C13.2984 23.2366 12.6626 23.5 11.9995 23.5C11.3365 23.5 10.7006 23.2366 10.2317 22.7678C9.7629 22.2989 9.49951 21.663 9.49951 21Z" fill="#67768E"/>
</g>
<defs>
<clipPath id="clip0_1_98">
<rect width="24" height="24" fill="white" transform="translate(-0.000488281)"/>
</clipPath>
</defs>
</svg>
