<svg width="21" height="21" viewBox="0 0 21 21" fill="none" xmlns="http://www.w3.org/2000/svg">
<path d="M10.298 20.1613C12.9146 20.1613 15.4239 19.1217 17.2738 17.2716C19.1238 15.4216 20.1634 12.9122 20.1634 10.2959C20.1634 7.67956 19.1238 5.17 17.2738 3.32017C15.4237 1.47011 12.9144 0.430542 10.298 0.430542C7.6817 0.430542 5.17214 1.47011 3.32231 3.32017C1.47225 5.17023 0.432678 7.67956 0.432678 10.2959C0.432678 12.9122 1.47225 15.4218 3.32231 17.2716C5.17237 19.1217 7.6817 20.1613 10.298 20.1613ZM5.52442 16.6605C6.14266 15.5013 7.16137 14.6069 8.39075 14.1436C9.62012 13.6805 10.976 13.6805 12.2054 14.1436C13.4348 14.6069 14.4535 15.5013 15.0717 16.6605C13.6956 17.6959 12.0203 18.2557 10.2981 18.2557C8.5759 18.2557 6.90053 17.6958 5.52442 16.6605ZM8.0704 9.65919C8.0704 9.06828 8.30504 8.50176 8.7228 8.08395C9.14058 7.66617 9.70707 7.43156 10.298 7.43156C10.889 7.43156 11.4555 7.6662 11.8733 8.08395C12.2911 8.50173 12.5257 9.06823 12.5257 9.65919C12.5257 10.2499 12.291 10.8166 11.8733 11.2344C11.4555 11.6522 10.889 11.8868 10.298 11.8868C9.70707 11.8868 9.1406 11.6522 8.7228 11.2344C8.30502 10.8166 8.0704 10.2499 8.0704 9.65919ZM10.298 2.33965C12.3095 2.34164 14.2456 3.10553 15.7165 4.4776C17.1877 5.84973 18.0843 7.72792 18.2261 9.73449C18.3682 11.7408 17.7446 13.7267 16.4815 15.2922C15.7074 14.0739 14.5917 13.1109 13.2736 12.5233C14.029 11.7397 14.445 10.6899 14.4317 9.60151C14.4184 8.51312 13.9766 7.47395 13.2023 6.70904C12.428 5.94407 11.3833 5.51518 10.295 5.51518C9.20635 5.51518 8.1619 5.94406 7.38761 6.70904C6.61309 7.47401 6.17136 8.51312 6.158 9.60151C6.14468 10.6899 6.56069 11.7397 7.31612 12.5233C5.99775 13.1078 4.88316 14.0717 4.11461 15.2922C2.85148 13.7267 2.22796 11.7408 2.37003 9.73449C2.51188 7.72792 3.40846 5.84973 4.87958 4.4776C6.35048 3.10547 8.28658 2.34164 10.298 2.33965Z" fill="white"/>
</svg>
