<svg width="16" height="16" viewBox="0 0 16 16" fill="none" xmlns="http://www.w3.org/2000/svg">
<g clip-path="url(#clip0_1_117)">
<path d="M7.33333 1.33334C10.6453 1.33334 13.3333 4.02134 13.3333 7.33334C13.3333 10.6453 10.6453 13.3333 7.33333 13.3333C4.02133 13.3333 1.33333 10.6453 1.33333 7.33334C1.33333 4.02134 4.02133 1.33334 7.33333 1.33334ZM7.33333 12C9.91133 12 12 9.91134 12 7.33334C12 4.75467 9.91133 2.66667 7.33333 2.66667C4.75466 2.66667 2.66666 4.75467 2.66666 7.33334C2.66666 9.91134 4.75466 12 7.33333 12ZM12.99 12.0473L14.876 13.9327L13.9327 14.876L12.0473 12.99L12.99 12.0473Z" fill="#67768E"/>
</g>
<defs>
<clipPath id="clip0_1_117">
<rect width="16" height="16" fill="white"/>
</clipPath>
</defs>
</svg>
