<svg width="23" height="20" viewBox="0 0 23 20" fill="none" xmlns="http://www.w3.org/2000/svg">
<path d="M11.9768 19.9998C12.2204 19.9998 12.454 19.9031 12.6263 19.7308C12.7985 19.5586 12.8954 19.3248 12.8954 19.0813V9.32611L14.6931 11.1238C14.9251 11.356 15.2634 11.4466 15.5805 11.3617C15.8974 11.2767 16.1451 11.029 16.23 10.7121C16.315 10.3951 16.2243 10.0568 15.9922 9.82477L12.6275 6.46011C12.5851 6.41709 12.5386 6.37846 12.4886 6.34459L12.4439 6.32098C12.4077 6.29828 12.37 6.27814 12.331 6.26056L12.2654 6.23951V6.23969C12.2303 6.22688 12.1942 6.21644 12.1578 6.2082C12.0382 6.18385 11.9152 6.18385 11.7957 6.2082C11.7581 6.21717 11.7213 6.22852 11.6855 6.24225L11.625 6.26056C11.587 6.2774 11.5502 6.29663 11.5148 6.31841L11.4676 6.34459C11.4196 6.377 11.3748 6.41398 11.3338 6.4548L7.96124 9.82476C7.72672 10.0567 7.63409 10.3963 7.71776 10.7152C7.8016 11.0343 8.04911 11.2844 8.36727 11.3713C8.68545 11.4585 9.02598 11.369 9.26031 11.137L11.0606 9.3367L11.0608 19.0816C11.0608 19.3247 11.1571 19.5579 11.3288 19.7302C11.5006 19.9023 11.7336 19.9995 11.9767 20.0001L11.9768 19.9998Z" fill="#67768E"/>
<path d="M3.45284 15.8846H8.23742C8.56548 15.8846 8.86884 15.7096 9.03288 15.4255C9.19709 15.1412 9.19709 14.7911 9.03288 14.5068C8.86884 14.2227 8.56549 14.0475 8.23742 14.0475H3.45284C3.09055 14.0475 2.79672 13.7538 2.79672 13.3914V3.44447C2.79672 3.08199 3.09055 2.78834 3.45284 2.78834H20.5121C20.6862 2.78834 20.853 2.85736 20.9762 2.98057C21.0992 3.10359 21.1683 3.27037 21.1683 3.44447V13.3914C21.1683 13.5655 21.0992 13.7322 20.9762 13.8554C20.853 13.9785 20.6862 14.0475 20.5121 14.0475H15.7224C15.3944 14.0475 15.091 14.2227 14.927 14.5068C14.7627 14.7911 14.7627 15.1411 14.927 15.4255C15.091 15.7096 15.3943 15.8846 15.7224 15.8846H20.507C21.168 15.8841 21.8017 15.6212 22.2693 15.1536C22.7366 14.6862 22.9995 14.0524 23.0003 13.3913V3.44445C22.9995 2.78341 22.7366 2.14959 22.2693 1.68219C21.8017 1.21481 21.1681 0.951734 20.507 0.951172H3.44769C2.78697 0.952453 2.15395 1.21571 1.68711 1.68308C1.22028 2.15046 0.957781 2.78369 0.957031 3.44441V13.3913C0.957764 14.0529 1.22102 14.687 1.68894 15.1544C2.15687 15.622 2.79137 15.8845 3.45284 15.8845V15.8846Z" fill="#67768E"/>
</svg>
